<?xml version="1.0" encoding="UTF-8"?>
<svg xmlns="http://www.w3.org/2000/svg" xmlns:xlink="http://www.w3.org/1999/xlink" viewBox="0 0 32 32" width="32px" height="32px">
<g id="surface10229276">
<path style=" stroke:none;fill-rule:nonzero;fill:rgb(51.764709%,50.196081%,68.235296%);fill-opacity:1;" d="M 18.335938 2.046875 C 18.046875 2.035156 17.753906 2.070312 17.464844 2.148438 C 15.867188 2.578125 14.914062 4.222656 15.34375 5.824219 L 15.859375 7.757812 L 11.996094 8.792969 L 11.476562 6.859375 C 11.273438 6.085938 10.777344 5.441406 10.082031 5.035156 C 9.382812 4.636719 8.578125 4.53125 7.804688 4.738281 C 7.03125 4.945312 6.386719 5.441406 5.984375 6.136719 C 5.582031 6.832031 5.476562 7.640625 5.683594 8.414062 L 6.203125 10.34375 L 4.269531 10.863281 C 3.492188 11.070312 2.847656 11.566406 2.445312 12.257812 C 2.046875 12.953125 1.9375 13.761719 2.148438 14.535156 C 2.503906 15.875 3.722656 16.757812 5.046875 16.757812 C 5.300781 16.757812 5.5625 16.726562 5.820312 16.65625 L 7.753906 16.140625 L 8.789062 20.003906 L 6.855469 20.523438 C 6.082031 20.726562 5.433594 21.226562 5.035156 21.917969 C 4.632812 22.613281 4.527344 23.421875 4.734375 24.195312 C 5.09375 25.535156 6.308594 26.417969 7.632812 26.417969 C 7.890625 26.417969 8.148438 26.386719 8.40625 26.316406 L 10.339844 25.796875 L 10.859375 27.734375 C 11.066406 28.507812 11.5625 29.152344 12.257812 29.554688 C 12.71875 29.820312 13.230469 29.957031 13.75 29.957031 C 14.011719 29.957031 14.273438 29.921875 14.53125 29.851562 C 15.304688 29.644531 15.953125 29.152344 16.355469 28.457031 C 16.753906 27.761719 16.863281 26.953125 16.65625 26.179688 L 16.136719 24.25 L 20.003906 23.210938 L 20.515625 25.144531 C 20.726562 25.917969 21.222656 26.566406 21.914062 26.964844 C 22.378906 27.234375 22.890625 27.367188 23.414062 27.367188 C 23.671875 27.367188 23.9375 27.335938 24.195312 27.265625 C 24.96875 27.058594 25.613281 26.5625 26.015625 25.867188 C 26.417969 25.175781 26.523438 24.367188 26.316406 23.59375 L 25.796875 21.660156 L 27.730469 21.140625 C 28.5 20.9375 29.148438 20.441406 29.554688 19.742188 C 29.953125 19.046875 30.058594 18.238281 29.851562 17.464844 C 29.644531 16.691406 29.148438 16.046875 28.453125 15.644531 C 27.757812 15.242188 26.949219 15.136719 26.179688 15.34375 L 24.246094 15.863281 L 23.210938 12 L 25.140625 11.480469 C 25.910156 11.273438 26.558594 10.777344 26.96875 10.082031 C 27.363281 9.386719 27.46875 8.578125 27.261719 7.804688 C 26.835938 6.207031 25.1875 5.257812 23.589844 5.6875 L 21.65625 6.203125 L 21.140625 4.269531 C 20.933594 3.5 20.4375 2.851562 19.742188 2.445312 C 19.304688 2.195312 18.824219 2.0625 18.339844 2.046875 Z M 18.246094 3.046875 C 18.59375 3.046875 18.933594 3.132812 19.242188 3.308594 C 19.703125 3.582031 20.035156 4.011719 20.171875 4.527344 L 20.820312 6.941406 L 21.242188 8.515625 L 21.335938 8.867188 C 21.335938 8.871094 21.335938 8.871094 21.335938 8.875 L 21.597656 9.839844 C 21.597656 9.84375 21.597656 9.84375 21.601562 9.847656 L 23.28125 16.117188 L 19.414062 17.152344 L 18.25 12.804688 L 17.378906 9.546875 L 16.308594 5.5625 C 16.023438 4.5 16.660156 3.398438 17.726562 3.113281 C 17.898438 3.066406 18.070312 3.046875 18.246094 3.046875 Z M 8.585938 5.632812 C 8.933594 5.632812 9.273438 5.726562 9.582031 5.898438 C 10.046875 6.167969 10.375 6.601562 10.515625 7.117188 L 11.03125 9.046875 L 8.425781 9.746094 L 7.167969 10.085938 L 6.652344 8.152344 C 6.511719 7.636719 6.585938 7.097656 6.851562 6.632812 C 7.117188 6.171875 7.550781 5.839844 8.066406 5.703125 C 8.238281 5.65625 8.414062 5.632812 8.585938 5.632812 Z M 24.246094 6.585938 C 25.175781 6.53125 26.046875 7.132812 26.296875 8.0625 C 26.433594 8.578125 26.363281 9.117188 26.101562 9.578125 C 25.832031 10.042969 25.398438 10.375 24.882812 10.515625 L 22.953125 11.03125 L 22.253906 8.425781 L 21.914062 7.167969 L 23.847656 6.652344 C 23.980469 6.617188 24.117188 6.59375 24.25 6.585938 Z M 24.304688 7.605469 C 24.242188 7.59375 24.171875 7.597656 24.105469 7.617188 C 23.839844 7.6875 23.679688 7.960938 23.75 8.230469 L 24.007812 9.195312 C 24.070312 9.417969 24.273438 9.566406 24.492188 9.566406 C 24.535156 9.566406 24.578125 9.5625 24.625 9.550781 C 24.886719 9.476562 25.046875 9.203125 24.976562 8.9375 L 24.71875 7.96875 C 24.664062 7.769531 24.496094 7.632812 24.304688 7.605469 Z M 16.117188 8.722656 L 16.453125 9.976562 L 16.503906 10.164062 C 16.503906 10.164062 16.503906 10.167969 16.507812 10.171875 L 16.765625 11.136719 C 16.765625 11.140625 16.765625 11.144531 16.765625 11.144531 L 17.15625 12.585938 L 12.808594 13.75 L 8.929688 14.789062 L 5.5625 15.691406 C 4.496094 15.976562 3.398438 15.34375 3.113281 14.277344 C 2.976562 13.761719 3.046875 13.222656 3.3125 12.757812 C 3.582031 12.296875 4.011719 11.964844 4.527344 11.828125 L 6.941406 11.179688 L 8.515625 10.757812 Z M 14.644531 10.191406 C 14.582031 10.183594 14.511719 10.1875 14.445312 10.203125 C 14.179688 10.277344 14.019531 10.550781 14.09375 10.820312 L 14.351562 11.785156 C 14.410156 12.007812 14.613281 12.15625 14.835938 12.15625 C 14.878906 12.15625 14.917969 12.148438 14.964844 12.136719 C 15.226562 12.066406 15.390625 11.792969 15.316406 11.523438 L 15.058594 10.558594 C 15.003906 10.359375 14.835938 10.21875 14.644531 10.191406 Z M 12.226562 10.835938 C 12.164062 10.832031 12.097656 10.835938 12.03125 10.851562 C 11.765625 10.925781 11.605469 11.195312 11.675781 11.464844 L 11.933594 12.429688 C 11.996094 12.652344 12.195312 12.800781 12.417969 12.800781 C 12.460938 12.800781 12.503906 12.796875 12.546875 12.785156 C 12.8125 12.710938 12.972656 12.4375 12.902344 12.171875 L 12.644531 11.207031 C 12.589844 11.003906 12.421875 10.867188 12.226562 10.839844 Z M 9.8125 11.484375 C 9.75 11.476562 9.683594 11.480469 9.617188 11.5 C 9.347656 11.570312 9.1875 11.84375 9.261719 12.113281 L 9.523438 13.078125 C 9.582031 13.300781 9.785156 13.449219 10.003906 13.449219 C 10.046875 13.449219 10.089844 13.445312 10.132812 13.429688 C 10.402344 13.359375 10.558594 13.085938 10.488281 12.820312 L 10.226562 11.851562 C 10.175781 11.652344 10.007812 11.511719 9.8125 11.484375 Z M 7.402344 12.132812 C 7.335938 12.125 7.265625 12.128906 7.203125 12.148438 C 6.9375 12.21875 6.773438 12.492188 6.847656 12.757812 L 7.105469 13.726562 C 7.164062 13.949219 7.367188 14.097656 7.585938 14.097656 C 7.632812 14.097656 7.675781 14.089844 7.71875 14.078125 C 7.984375 14.007812 8.144531 13.734375 8.074219 13.46875 L 7.8125 12.5 C 7.757812 12.300781 7.59375 12.160156 7.402344 12.132812 Z M 4.984375 12.78125 C 4.921875 12.773438 4.855469 12.777344 4.785156 12.792969 C 4.519531 12.867188 4.363281 13.136719 4.433594 13.40625 L 4.691406 14.371094 C 4.753906 14.59375 4.953125 14.742188 5.175781 14.742188 C 5.21875 14.742188 5.257812 14.738281 5.304688 14.726562 C 5.570312 14.652344 5.730469 14.378906 5.65625 14.113281 L 5.398438 13.148438 C 5.347656 12.949219 5.179688 12.808594 4.984375 12.78125 Z M 17.414062 13.550781 L 18.449219 17.414062 L 14.585938 18.453125 L 13.550781 14.585938 Z M 12.585938 14.84375 L 14.265625 21.117188 C 14.265625 21.117188 14.265625 21.121094 14.265625 21.125 L 14.523438 22.085938 C 14.523438 22.09375 14.527344 22.09375 14.527344 22.09375 L 15.691406 26.433594 C 15.828125 26.949219 15.757812 27.492188 15.492188 27.953125 C 15.222656 28.414062 14.792969 28.746094 14.273438 28.882812 C 13.210938 29.167969 12.109375 28.535156 11.824219 27.46875 L 10.230469 21.515625 L 9.882812 20.226562 L 8.71875 15.882812 L 9.4375 15.6875 Z M 26.824219 16.246094 C 27.214844 16.21875 27.605469 16.308594 27.953125 16.507812 C 28.414062 16.777344 28.746094 17.207031 28.882812 17.722656 C 29.023438 18.238281 28.953125 18.78125 28.6875 19.242188 C 28.417969 19.703125 27.984375 20.035156 27.472656 20.171875 L 21.515625 21.769531 L 20.226562 22.117188 L 15.882812 23.28125 L 14.84375 19.414062 L 26.4375 16.308594 C 26.566406 16.273438 26.695312 16.253906 26.828125 16.246094 Z M 26.890625 17.265625 C 26.828125 17.253906 26.757812 17.257812 26.695312 17.277344 C 26.429688 17.347656 26.265625 17.621094 26.339844 17.890625 L 26.597656 18.855469 C 26.65625 19.078125 26.859375 19.226562 27.082031 19.226562 C 27.125 19.226562 27.167969 19.222656 27.210938 19.210938 C 27.476562 19.136719 27.636719 18.863281 27.566406 18.597656 L 27.304688 17.632812 C 27.253906 17.429688 27.085938 17.289062 26.890625 17.265625 Z M 24.476562 17.910156 C 24.414062 17.902344 24.34375 17.90625 24.277344 17.921875 C 24.011719 17.996094 23.851562 18.265625 23.921875 18.535156 L 24.183594 19.503906 C 24.242188 19.726562 24.445312 19.875 24.664062 19.875 C 24.707031 19.875 24.75 19.867188 24.796875 19.855469 C 25.0625 19.785156 25.222656 19.507812 25.148438 19.242188 L 24.890625 18.277344 C 24.835938 18.078125 24.667969 17.9375 24.476562 17.910156 Z M 22.0625 18.554688 C 22 18.546875 21.929688 18.554688 21.863281 18.570312 C 21.597656 18.644531 21.4375 18.914062 21.507812 19.183594 L 21.765625 20.148438 C 21.828125 20.371094 22.03125 20.519531 22.253906 20.519531 C 22.296875 20.519531 22.335938 20.515625 22.382812 20.503906 C 22.648438 20.429688 22.804688 20.15625 22.734375 19.890625 L 22.476562 18.925781 C 22.421875 18.726562 22.253906 18.585938 22.0625 18.558594 Z M 19.648438 19.203125 C 19.585938 19.195312 19.515625 19.199219 19.445312 19.21875 C 19.183594 19.289062 19.023438 19.5625 19.09375 19.828125 L 19.351562 20.796875 C 19.414062 21.019531 19.613281 21.167969 19.835938 21.167969 C 19.878906 21.167969 19.921875 21.164062 19.964844 21.148438 C 20.230469 21.078125 20.390625 20.804688 20.320312 20.539062 L 20.0625 19.570312 C 20.007812 19.371094 19.839844 19.230469 19.648438 19.203125 Z M 17.234375 19.851562 C 17.167969 19.84375 17.097656 19.847656 17.035156 19.867188 C 16.765625 19.9375 16.609375 20.210938 16.679688 20.476562 L 16.9375 21.445312 C 17 21.667969 17.203125 21.816406 17.421875 21.816406 C 17.464844 21.816406 17.507812 21.808594 17.550781 21.796875 C 17.816406 21.726562 17.976562 21.453125 17.90625 21.183594 L 17.648438 20.21875 C 17.59375 20.015625 17.425781 19.878906 17.234375 19.851562 Z M 9.046875 20.96875 L 9.289062 21.867188 L 9.433594 22.410156 C 9.433594 22.414062 9.433594 22.414062 9.433594 22.417969 L 9.695312 23.382812 C 9.695312 23.386719 9.695312 23.386719 9.695312 23.390625 L 10.085938 24.832031 L 8.152344 25.347656 C 7.636719 25.488281 7.097656 25.417969 6.632812 25.148438 C 6.171875 24.882812 5.839844 24.449219 5.703125 23.933594 C 5.5625 23.417969 5.636719 22.882812 5.902344 22.417969 C 6.167969 21.953125 6.601562 21.625 7.117188 21.484375 Z M 24.832031 21.914062 L 25.347656 23.847656 C 25.488281 24.363281 25.414062 24.902344 25.148438 25.363281 C 24.882812 25.828125 24.453125 26.15625 23.933594 26.296875 C 23.417969 26.433594 22.878906 26.363281 22.417969 26.09375 C 21.953125 25.832031 21.625 25.398438 21.484375 24.882812 L 20.96875 22.949219 L 21.867188 22.710938 Z M 7.574219 22.4375 C 7.507812 22.429688 7.441406 22.433594 7.375 22.453125 C 7.109375 22.523438 6.949219 22.796875 7.023438 23.066406 L 7.28125 24.03125 C 7.339844 24.253906 7.542969 24.402344 7.765625 24.402344 C 7.804688 24.402344 7.847656 24.398438 7.890625 24.386719 C 8.15625 24.3125 8.316406 24.039062 8.246094 23.773438 L 7.988281 22.804688 C 7.933594 22.605469 7.765625 22.46875 7.574219 22.4375 Z M 7.574219 22.4375 "/>
</g>
</svg>
