<?xml version="1.0" encoding="UTF-8"?>
<svg xmlns="http://www.w3.org/2000/svg" xmlns:xlink="http://www.w3.org/1999/xlink" viewBox="0 0 32 32" width="32px" height="32px">
<g id="surface10202876">
<path style=" stroke:none;fill-rule:nonzero;fill:rgb(51.764709%,50.196081%,68.235296%);fill-opacity:1;" d="M 16 1.5 C 8.003906 1.5 1.5 8.003906 1.5 16 C 1.5 23.996094 8.003906 30.5 16 30.5 C 23.996094 30.5 30.5 23.996094 30.5 16 C 30.5 8.003906 23.996094 1.5 16 1.5 Z M 16 2.5 C 23.445312 2.5 29.5 8.554688 29.5 16 C 29.5 23.445312 23.445312 29.5 16 29.5 C 8.554688 29.5 2.5 23.445312 2.5 16 C 2.5 8.554688 8.554688 2.5 16 2.5 Z M 16 4 C 9.382812 4 4 9.382812 4 16 C 4 17.054688 4.136719 18.105469 4.40625 19.117188 C 4.46875 19.339844 4.671875 19.484375 4.890625 19.484375 C 4.933594 19.484375 4.976562 19.480469 5.023438 19.46875 C 5.289062 19.398438 5.445312 19.121094 5.375 18.855469 C 5.125 17.929688 5 16.96875 5 16 C 5 9.933594 9.933594 5 16 5 C 18.851562 5 21.558594 6.085938 23.617188 8.0625 C 23.8125 8.253906 24.132812 8.246094 24.324219 8.046875 C 24.515625 7.847656 24.507812 7.53125 24.308594 7.339844 C 22.0625 5.1875 19.113281 4 16 4 Z M 19.597656 9.386719 C 18.597656 9.417969 17.613281 9.832031 16.875 10.617188 C 16.199219 11.34375 15.820312 12.296875 15.820312 13.289062 L 15.820312 13.597656 C 13.367188 13.328125 11.113281 12.105469 9.550781 10.195312 C 9.394531 10.007812 9.117188 9.980469 8.929688 10.132812 C 8.890625 10.164062 8.855469 10.203125 8.832031 10.25 C 8.109375 11.492188 8.128906 13.027344 8.875 14.25 C 8.648438 14.160156 8.394531 14.269531 8.300781 14.492188 C 8.28125 14.542969 8.269531 14.597656 8.269531 14.648438 L 8.269531 14.699219 C 8.277344 15.894531 8.828125 17.019531 9.769531 17.753906 C 9.550781 17.835938 9.433594 18.070312 9.5 18.292969 C 9.886719 19.480469 10.816406 20.410156 12 20.792969 C 10.804688 21.445312 9.4375 21.707031 8.085938 21.550781 C 7.84375 21.523438 7.625 21.699219 7.601562 21.9375 C 7.582031 22.105469 7.65625 22.265625 7.796875 22.355469 C 9.449219 23.425781 11.375 23.996094 13.34375 24 C 16.269531 24.070312 19.070312 22.835938 21 20.640625 C 22.6875 18.71875 23.628906 16.261719 23.652344 13.703125 L 23.652344 13.46875 C 24.292969 12.976562 24.851562 12.378906 25.300781 11.703125 C 25.433594 11.5 25.375 11.230469 25.171875 11.097656 C 25.046875 11.015625 24.894531 11.003906 24.761719 11.058594 L 24.746094 11.058594 L 24.402344 11.199219 C 24.605469 10.890625 24.761719 10.554688 24.871094 10.199219 C 24.933594 9.964844 24.796875 9.722656 24.5625 9.660156 C 24.449219 9.628906 24.332031 9.644531 24.230469 9.699219 C 23.660156 10.039062 23.039062 10.289062 22.394531 10.441406 C 21.609375 9.703125 20.597656 9.355469 19.597656 9.386719 Z M 19.828125 10.296875 C 20.613281 10.328125 21.367188 10.660156 21.917969 11.246094 C 22.023438 11.355469 22.175781 11.402344 22.324219 11.375 C 22.683594 11.304688 23.03125 11.207031 23.375 11.085938 C 23.175781 11.304688 22.945312 11.492188 22.691406 11.644531 C 22.492188 11.785156 22.445312 12.0625 22.585938 12.257812 C 22.679688 12.390625 22.839844 12.460938 23 12.441406 C 23.210938 12.414062 23.417969 12.378906 23.625 12.339844 C 23.40625 12.542969 23.175781 12.730469 22.933594 12.902344 C 22.816406 12.988281 22.75 13.128906 22.753906 13.277344 L 22.753906 13.707031 C 22.75 18.90625 18.527344 23.121094 13.328125 23.117188 C 12.121094 23.113281 10.921875 22.882812 9.804688 22.429688 C 11.125 22.269531 12.378906 21.75 13.429688 20.929688 C 13.621094 20.777344 13.652344 20.503906 13.503906 20.3125 C 13.421875 20.207031 13.296875 20.148438 13.164062 20.144531 C 12.121094 20.125 11.164062 19.574219 10.625 18.679688 C 10.953125 18.675781 11.28125 18.632812 11.601562 18.546875 C 11.832031 18.480469 11.972656 18.238281 11.90625 18.003906 C 11.863281 17.84375 11.730469 17.722656 11.570312 17.691406 C 10.398438 17.449219 9.476562 16.542969 9.21875 15.375 C 9.558594 15.480469 9.90625 15.539062 10.261719 15.550781 C 10.457031 15.558594 10.636719 15.433594 10.691406 15.246094 C 10.75 15.058594 10.679688 14.855469 10.515625 14.746094 C 9.382812 13.992188 8.894531 12.578125 9.316406 11.285156 C 11.140625 13.234375 13.648438 14.402344 16.316406 14.539062 C 16.453125 14.550781 16.585938 14.492188 16.675781 14.386719 C 16.761719 14.277344 16.796875 14.140625 16.765625 14.003906 C 16.390625 12.375 17.40625 10.746094 19.039062 10.375 C 19.300781 10.3125 19.566406 10.289062 19.828125 10.300781 Z M 27.019531 12.050781 C 26.957031 12.046875 26.890625 12.050781 26.824219 12.074219 C 26.558594 12.15625 26.414062 12.4375 26.496094 12.699219 C 26.832031 13.765625 27 14.875 27 16 C 27 17.34375 26.761719 18.65625 26.289062 19.902344 C 26.191406 20.160156 26.320312 20.449219 26.578125 20.546875 C 26.636719 20.566406 26.695312 20.578125 26.753906 20.578125 C 26.957031 20.578125 27.148438 20.453125 27.222656 20.253906 C 27.738281 18.894531 28 17.464844 28 16 C 28 14.773438 27.816406 13.5625 27.449219 12.398438 C 27.386719 12.203125 27.214844 12.070312 27.019531 12.050781 Z M 25.585938 21 C 25.390625 20.976562 25.195312 21.066406 25.089844 21.246094 C 24.953125 21.484375 25.035156 21.792969 25.273438 21.929688 L 26.136719 22.429688 C 26.214844 22.476562 26.300781 22.5 26.386719 22.5 C 26.5625 22.5 26.730469 22.410156 26.820312 22.25 C 26.960938 22.011719 26.878906 21.703125 26.640625 21.566406 L 25.773438 21.066406 C 25.714844 21.03125 25.648438 21.007812 25.585938 21 Z M 24.199219 22.792969 C 24.070312 22.800781 23.945312 22.859375 23.855469 22.960938 C 23.671875 23.167969 23.691406 23.484375 23.898438 23.667969 L 24.644531 24.332031 C 24.742188 24.414062 24.859375 24.457031 24.976562 24.457031 C 25.113281 24.457031 25.253906 24.402344 25.351562 24.289062 C 25.535156 24.082031 25.515625 23.765625 25.308594 23.582031 L 24.5625 22.917969 C 24.457031 22.828125 24.328125 22.785156 24.199219 22.792969 Z M 8.324219 24.089844 C 8.195312 24.097656 8.070312 24.152344 7.980469 24.253906 C 7.796875 24.460938 7.8125 24.777344 8.019531 24.960938 C 10.21875 26.921875 13.050781 28 16 28 C 16.316406 28 16.636719 27.988281 16.953125 27.960938 C 17.226562 27.941406 17.433594 27.699219 17.410156 27.425781 C 17.390625 27.148438 17.148438 26.941406 16.875 26.964844 C 13.859375 27.199219 10.914062 26.203125 8.683594 24.214844 C 8.582031 24.121094 8.449219 24.082031 8.324219 24.089844 Z M 22.671875 24.300781 C 22.546875 24.285156 22.414062 24.3125 22.300781 24.394531 C 22.082031 24.5625 22.039062 24.875 22.203125 25.097656 L 22.804688 25.894531 C 22.902344 26.027344 23.050781 26.09375 23.203125 26.09375 C 23.308594 26.09375 23.414062 26.0625 23.503906 25.996094 C 23.722656 25.828125 23.769531 25.515625 23.601562 25.296875 L 23.003906 24.496094 C 22.917969 24.386719 22.800781 24.320312 22.671875 24.300781 Z M 20.6875 25.445312 C 20.621094 25.445312 20.554688 25.460938 20.492188 25.492188 C 20.246094 25.609375 20.136719 25.90625 20.257812 26.15625 L 20.683594 27.0625 C 20.769531 27.242188 20.949219 27.34375 21.136719 27.34375 C 21.210938 27.34375 21.28125 27.332031 21.351562 27.296875 C 21.601562 27.179688 21.707031 26.882812 21.589844 26.632812 L 21.160156 25.726562 C 21.070312 25.542969 20.882812 25.433594 20.6875 25.445312 Z M 18.699219 26.1875 C 18.636719 26.175781 18.570312 26.179688 18.503906 26.195312 C 18.234375 26.261719 18.070312 26.53125 18.136719 26.800781 L 18.375 27.769531 C 18.429688 28 18.632812 28.152344 18.859375 28.152344 C 18.898438 28.152344 18.9375 28.148438 18.976562 28.136719 C 19.246094 28.070312 19.410156 27.800781 19.34375 27.53125 L 19.105469 26.5625 C 19.058594 26.359375 18.890625 26.21875 18.699219 26.1875 Z M 18.699219 26.1875 "/>
</g>
</svg>
