<?xml version="1.0" encoding="UTF-8"?>
<svg xmlns="http://www.w3.org/2000/svg" xmlns:xlink="http://www.w3.org/1999/xlink" viewBox="0 0 32 32" width="32px" height="32px">
<g id="surface10209176">
<path style=" stroke:none;fill-rule:nonzero;fill:rgb(51.764709%,50.196081%,68.235296%);fill-opacity:1;" d="M 6.5 3 C 4.570312 3 3 4.570312 3 6.5 L 3 25.5 C 3 27.429688 4.570312 29 6.5 29 L 25.5 29 C 27.429688 29 29 27.429688 29 25.5 L 29 6.5 C 29 4.570312 27.429688 3 25.5 3 Z M 6.5 4 L 25.5 4 C 26.878906 4 28 5.121094 28 6.5 L 28 25.5 C 28 26.878906 26.878906 28 25.5 28 L 6.5 28 C 5.121094 28 4 26.878906 4 25.5 L 4 6.5 C 4 5.121094 5.121094 4 6.5 4 Z M 24 6.5 C 23.175781 6.5 22.5 7.175781 22.5 8 C 22.5 8.824219 23.175781 9.5 24 9.5 C 24.824219 9.5 25.5 8.824219 25.5 8 C 25.5 7.175781 24.824219 6.5 24 6.5 Z M 24 7.265625 C 24.40625 7.265625 24.734375 7.59375 24.734375 8 C 24.734375 8.40625 24.40625 8.734375 24 8.734375 C 23.59375 8.734375 23.265625 8.40625 23.265625 8 C 23.265625 7.59375 23.59375 7.265625 24 7.265625 Z M 16 9 C 12.140625 9 9 12.140625 9 16 C 9 19.859375 12.140625 23 16 23 C 19.859375 23 23 19.859375 23 16 C 23 12.140625 19.859375 9 16 9 Z M 16 10 C 19.308594 10 22 12.691406 22 16 C 22 19.308594 19.308594 22 16 22 C 12.691406 22 10 19.308594 10 16 C 10 12.691406 12.691406 10 16 10 Z M 16 11 C 13.242188 11 11 13.242188 11 16 C 11 18.757812 13.242188 21 16 21 C 18.757812 21 21 18.757812 21 16 C 21 13.242188 18.757812 11 16 11 Z M 16 12 C 18.203125 12 20 13.796875 20 16 C 20 18.203125 18.203125 20 16 20 C 13.796875 20 12 18.203125 12 16 C 12 13.796875 13.796875 12 16 12 Z M 6 24.5 C 5.726562 24.5 5.5 24.726562 5.5 25 L 5.5 26 C 5.5 26.273438 5.726562 26.5 6 26.5 C 6.273438 26.5 6.5 26.273438 6.5 26 L 6.5 25 C 6.5 24.726562 6.273438 24.5 6 24.5 Z M 8.5 24.5 C 8.226562 24.5 8 24.726562 8 25 L 8 26 C 8 26.273438 8.226562 26.5 8.5 26.5 C 8.773438 26.5 9 26.273438 9 26 L 9 25 C 9 24.726562 8.773438 24.5 8.5 24.5 Z M 11 24.5 C 10.726562 24.5 10.5 24.726562 10.5 25 L 10.5 26 C 10.5 26.273438 10.726562 26.5 11 26.5 C 11.273438 26.5 11.5 26.273438 11.5 26 L 11.5 25 C 11.5 24.726562 11.273438 24.5 11 24.5 Z M 13.5 24.5 C 13.226562 24.5 13 24.726562 13 25 L 13 26 C 13 26.273438 13.226562 26.5 13.5 26.5 C 13.773438 26.5 14 26.273438 14 26 L 14 25 C 14 24.726562 13.773438 24.5 13.5 24.5 Z M 16 24.5 C 15.726562 24.5 15.5 24.726562 15.5 25 L 15.5 26 C 15.5 26.273438 15.726562 26.5 16 26.5 C 16.273438 26.5 16.5 26.273438 16.5 26 L 16.5 25 C 16.5 24.726562 16.273438 24.5 16 24.5 Z M 18.5 24.5 C 18.226562 24.5 18 24.726562 18 25 L 18 26 C 18 26.273438 18.226562 26.5 18.5 26.5 C 18.773438 26.5 19 26.273438 19 26 L 19 25 C 19 24.726562 18.773438 24.5 18.5 24.5 Z M 21 24.5 C 20.726562 24.5 20.5 24.726562 20.5 25 L 20.5 26 C 20.5 26.273438 20.726562 26.5 21 26.5 C 21.273438 26.5 21.5 26.273438 21.5 26 L 21.5 25 C 21.5 24.726562 21.273438 24.5 21 24.5 Z M 23.5 24.5 C 23.226562 24.5 23 24.726562 23 25 L 23 26 C 23 26.273438 23.226562 26.5 23.5 26.5 C 23.773438 26.5 24 26.273438 24 26 L 24 25 C 24 24.726562 23.773438 24.5 23.5 24.5 Z M 26 24.5 C 25.726562 24.5 25.5 24.726562 25.5 25 L 25.5 26 C 25.5 26.273438 25.726562 26.5 26 26.5 C 26.273438 26.5 26.5 26.273438 26.5 26 L 26.5 25 C 26.5 24.726562 26.273438 24.5 26 24.5 Z M 26 24.5 "/>
</g>
</svg>
