<?xml version="1.0" encoding="UTF-8"?>
<svg xmlns="http://www.w3.org/2000/svg" xmlns:xlink="http://www.w3.org/1999/xlink" viewBox="0 0 32 32" width="32px" height="32px">
<g id="surface10215812">
<path style=" stroke:none;fill-rule:nonzero;fill:rgb(51.764709%,50.196081%,68.235296%);fill-opacity:1;" d="M 16 2 C 8.269531 2 2 8.269531 2 16 C 2 23.730469 8.269531 30 16 30 C 23.730469 30 30 23.730469 30 16 C 30 8.269531 23.730469 2 16 2 Z M 16 3 C 23.167969 3 29 8.832031 29 16 C 29 23.167969 23.167969 29 16 29 C 8.832031 29 3 23.167969 3 16 C 3 8.832031 8.832031 3 16 3 Z M 12.492188 10.097656 C 11.980469 10.117188 11.5 10.535156 11.5 11.09375 L 11.5 20.90625 C 11.5 21.652344 12.355469 22.144531 13 21.773438 L 21.5 16.867188 C 22.144531 16.492188 22.144531 15.507812 21.5 15.132812 L 13 10.226562 C 12.839844 10.132812 12.664062 10.09375 12.492188 10.097656 Z M 12.5 11.09375 L 21 16 L 12.5 20.90625 Z M 25.910156 17.402344 C 25.636719 17.351562 25.375 17.527344 25.324219 17.796875 C 25.273438 18.070312 25.449219 18.332031 25.722656 18.382812 L 26.703125 18.574219 C 26.734375 18.578125 26.765625 18.582031 26.796875 18.582031 C 27.03125 18.582031 27.242188 18.414062 27.289062 18.175781 C 27.339844 17.90625 27.164062 17.644531 26.890625 17.589844 Z M 25.105469 19.652344 C 24.910156 19.644531 24.71875 19.753906 24.636719 19.941406 C 24.519531 20.195312 24.628906 20.492188 24.882812 20.605469 L 25.792969 21.023438 C 25.859375 21.050781 25.929688 21.066406 25.996094 21.066406 C 26.1875 21.066406 26.367188 20.957031 26.453125 20.773438 C 26.566406 20.523438 26.457031 20.226562 26.207031 20.113281 L 25.296875 19.695312 C 25.234375 19.667969 25.167969 19.652344 25.101562 19.652344 Z M 23.796875 21.679688 C 23.667969 21.695312 23.546875 21.757812 23.460938 21.867188 C 23.289062 22.085938 23.328125 22.398438 23.546875 22.570312 L 24.332031 23.1875 C 24.421875 23.261719 24.53125 23.292969 24.636719 23.292969 C 24.785156 23.292969 24.933594 23.230469 25.03125 23.105469 C 25.203125 22.886719 25.167969 22.574219 24.949219 22.402344 L 24.164062 21.785156 C 24.054688 21.699219 23.921875 21.664062 23.796875 21.679688 Z M 22.234375 23.359375 C 22.109375 23.34375 21.976562 23.375 21.867188 23.460938 C 21.648438 23.632812 21.613281 23.945312 21.78125 24.164062 L 22.402344 24.949219 C 22.5 25.074219 22.648438 25.140625 22.796875 25.140625 C 22.902344 25.140625 23.011719 25.105469 23.105469 25.035156 C 23.320312 24.863281 23.359375 24.546875 23.1875 24.332031 L 22.570312 23.546875 C 22.484375 23.4375 22.363281 23.375 22.234375 23.359375 Z M 20.136719 24.589844 C 20.070312 24.589844 20.003906 24.605469 19.941406 24.632812 C 19.691406 24.75 19.582031 25.046875 19.695312 25.296875 L 20.113281 26.207031 C 20.195312 26.390625 20.378906 26.5 20.566406 26.5 C 20.636719 26.5 20.707031 26.484375 20.773438 26.453125 C 21.027344 26.339844 21.136719 26.042969 21.019531 25.792969 L 20.605469 24.882812 C 20.519531 24.695312 20.332031 24.582031 20.136719 24.589844 Z M 17.796875 25.324219 C 17.527344 25.375 17.347656 25.636719 17.402344 25.910156 L 17.589844 26.890625 C 17.636719 27.132812 17.84375 27.296875 18.082031 27.296875 C 18.113281 27.296875 18.144531 27.292969 18.175781 27.289062 C 18.445312 27.234375 18.625 26.972656 18.570312 26.703125 L 18.382812 25.71875 C 18.332031 25.449219 18.066406 25.273438 17.796875 25.324219 Z M 17.796875 25.324219 "/>
</g>
</svg>
