<?xml version="1.0" encoding="UTF-8"?>
<svg xmlns="http://www.w3.org/2000/svg" xmlns:xlink="http://www.w3.org/1999/xlink" viewBox="0 0 32 32" width="32px" height="32px">
<g id="surface10208331">
<path style=" stroke:none;fill-rule:nonzero;fill:rgb(51.764709%,50.196081%,68.235296%);fill-opacity:1;" d="M 26.210938 5.703125 C 23.472656 2.992188 19.851562 1.5 16.003906 1.5 C 15.980469 1.5 15.960938 1.5 15.9375 1.5 C 12.066406 1.515625 8.429688 3.039062 5.703125 5.789062 C 2.976562 8.539062 1.484375 12.1875 1.5 16.0625 C 1.515625 19.933594 3.039062 23.570312 5.789062 26.296875 C 8.527344 29.007812 12.148438 30.5 15.996094 30.5 C 16.019531 30.5 16.039062 30.5 16.0625 30.5 C 19.933594 30.484375 23.570312 28.960938 26.296875 26.210938 C 29.023438 23.460938 30.515625 19.8125 30.5 15.9375 C 30.484375 12.066406 28.960938 8.429688 26.210938 5.703125 Z M 16.058594 29.5 C 15.40625 29.503906 14.765625 29.457031 14.132812 29.371094 L 14.132812 19.3125 L 11.039062 19.3125 L 11.039062 16.027344 L 14.132812 16.027344 L 14.132812 13.839844 C 14.132812 10.21875 15.894531 8.632812 18.902344 8.632812 C 20.34375 8.632812 21.105469 8.738281 21.46875 8.785156 L 21.46875 11.65625 L 19.414062 11.65625 C 18.136719 11.65625 17.691406 12.867188 17.691406 14.230469 L 17.691406 16.027344 L 21.433594 16.027344 L 20.925781 19.3125 L 17.691406 19.3125 L 17.691406 29.390625 C 17.152344 29.457031 16.609375 29.496094 16.058594 29.5 Z M 25.585938 25.503906 C 23.679688 27.429688 21.292969 28.710938 18.691406 29.234375 L 18.691406 20.3125 L 20.925781 20.3125 C 21.421875 20.3125 21.839844 19.953125 21.914062 19.464844 L 22.414062 16.230469 C 22.429688 16.164062 22.4375 16.097656 22.4375 16.027344 C 22.4375 15.476562 21.988281 15.027344 21.4375 15.027344 L 18.691406 15.027344 L 18.691406 14.230469 C 18.691406 13.644531 18.785156 12.65625 19.414062 12.65625 L 21.46875 12.65625 C 22.019531 12.65625 22.46875 12.207031 22.46875 11.65625 L 22.46875 8.789062 C 22.46875 8.285156 22.097656 7.863281 21.601562 7.796875 C 21.191406 7.742188 20.382812 7.632812 18.902344 7.632812 C 15.183594 7.632812 13.132812 9.835938 13.132812 13.839844 L 13.132812 15.027344 L 11.039062 15.027344 C 10.488281 15.027344 10.039062 15.476562 10.039062 16.027344 L 10.039062 19.3125 C 10.039062 19.867188 10.488281 20.3125 11.039062 20.3125 L 13.132812 20.3125 L 13.132812 29.191406 C 10.640625 28.65625 8.347656 27.425781 6.496094 25.585938 C 3.933594 23.046875 2.515625 19.664062 2.5 16.058594 C 2.484375 12.449219 3.875 9.054688 6.414062 6.496094 C 8.953125 3.933594 12.335938 2.515625 15.941406 2.5 C 15.964844 2.5 15.984375 2.5 16.003906 2.5 C 19.585938 2.5 22.960938 3.886719 25.503906 6.414062 C 28.066406 8.953125 29.484375 12.335938 29.5 15.941406 C 29.515625 19.550781 28.125 22.945312 25.585938 25.503906 Z M 26.417969 21.957031 C 26.417969 21.957031 26.414062 21.957031 26.414062 21.957031 C 26.277344 22.195312 25.972656 22.28125 25.734375 22.140625 L 24.867188 21.648438 C 24.628906 21.507812 24.542969 21.203125 24.679688 20.964844 C 24.679688 20.964844 24.679688 20.964844 24.683594 20.960938 C 24.820312 20.722656 25.125 20.640625 25.363281 20.777344 L 26.230469 21.273438 C 26.472656 21.410156 26.554688 21.71875 26.417969 21.957031 Z M 27.53125 19.238281 C 27.519531 19.28125 27.5 19.324219 27.480469 19.363281 C 27.367188 19.554688 27.140625 19.65625 26.917969 19.59375 L 25.953125 19.339844 C 25.683594 19.269531 25.527344 18.996094 25.597656 18.730469 C 25.667969 18.464844 25.941406 18.304688 26.207031 18.375 L 27.171875 18.628906 C 27.441406 18.699219 27.597656 18.972656 27.53125 19.238281 Z M 22.496094 25.410156 C 22.589844 25.570312 22.585938 25.761719 22.496094 25.910156 C 22.457031 25.984375 22.394531 26.046875 22.316406 26.09375 C 22.078125 26.230469 21.773438 26.148438 21.632812 25.910156 L 21.128906 25.046875 C 20.988281 24.808594 21.070312 24.503906 21.308594 24.363281 C 21.546875 24.226562 21.855469 24.304688 21.992188 24.546875 Z M 27.902344 16.324219 C 27.902344 16.417969 27.878906 16.503906 27.835938 16.578125 C 27.75 16.726562 27.589844 16.828125 27.402344 16.828125 L 26.402344 16.832031 C 26.128906 16.832031 25.902344 16.609375 25.902344 16.335938 C 25.898438 16.058594 26.121094 15.832031 26.398438 15.832031 L 27.398438 15.828125 C 27.675781 15.828125 27.902344 16.050781 27.902344 16.324219 Z M 24.636719 23.589844 C 24.800781 23.75 24.828125 24 24.71875 24.191406 C 24.695312 24.230469 24.667969 24.265625 24.640625 24.296875 C 24.445312 24.492188 24.128906 24.492188 23.933594 24.296875 L 23.222656 23.59375 C 23.027344 23.398438 23.027344 23.078125 23.21875 22.886719 C 23.414062 22.691406 23.730469 22.691406 23.925781 22.882812 Z M 13.578125 4.804688 C 13.625 4.996094 13.554688 5.1875 13.414062 5.304688 C 13.359375 5.355469 13.289062 5.390625 13.210938 5.410156 C 12.839844 5.5 12.46875 5.609375 12.113281 5.738281 C 11.851562 5.832031 11.566406 5.699219 11.472656 5.4375 C 11.378906 5.179688 11.515625 4.890625 11.773438 4.796875 C 12.164062 4.65625 12.570312 4.535156 12.976562 4.4375 C 13.246094 4.371094 13.515625 4.539062 13.578125 4.804688 Z M 10.410156 5.949219 C 10.554688 6.183594 10.480469 6.488281 10.242188 6.632812 C 8.195312 7.875 6.621094 9.789062 5.808594 12.027344 C 5.777344 12.113281 5.722656 12.183594 5.660156 12.238281 C 5.527344 12.347656 5.339844 12.390625 5.167969 12.324219 C 4.90625 12.230469 4.773438 11.945312 4.867188 11.683594 C 5.757812 9.234375 7.480469 7.136719 9.722656 5.777344 C 9.960938 5.636719 10.265625 5.710938 10.410156 5.949219 Z M 10.410156 5.949219 "/>
</g>
</svg>
